<svg xmlns="http://www.w3.org/2000/svg" viewBox="0 0 24 24" fill="#f05a28" aria-hidden="true">
  <path d="M15.941 17.963c.229-1.879-.981-3.077-4.176-4.097-1.548-.528-2.277-1.22-2.26-2.172.065-1.056 1.048-1.825 2.352-1.85a5.29 5.29 0 0 1 2.884.89c.116.072.197.06.263-.039.09-.145.315-.494.39-.62.051-.081.061-.187-.068-.281-.185-.137-.704-.415-.983-.532a6.47 6.47 0 0 0-2.512-.514c-1.909.008-3.413 1.215-3.539 2.826-.082 1.163.494 2.108 1.73 2.828.262.152 1.68.716 2.244.892 1.774.552 2.695 1.542 2.478 2.697-.197 1.047-1.299 1.724-2.818 1.744-1.204-.046-2.288-.537-3.128-1.19l-.141-.11c-.104-.08-.218-.075-.287.03-.05.077-.376.547-.458.67-.077.108-.035.168.045.234.35.293.817.613 1.134.775a6.71 6.71 0 0 0 2.829.727 4.905 4.905 0 0 0 2.076-.354c1.095-.465 1.803-1.394 1.945-2.554zM11.999 1.401c-2.068 0-3.754 1.95-3.833 4.39h7.666c-.08-2.44-1.765-4.39-3.833-4.39zm7.852 22.598-.08.001-15.784-.002c-1.074-.04-1.863-.91-1.971-1.991l-.01-.195L1.298 6.286a.459.459 0 0 1 .45-.494h4.975C6.845 2.568 9.161 0 12 0c2.839 0 5.154 2.569 5.276 5.79h4.968a.459.459 0 0 1 .458.483l-.773 15.588-.007.131c-.094 1.094-.979 1.977-2.071 2.006z"/>
</svg>
